<?xml version="1.0" encoding="UTF-8" standalone="no"?>
<!-- Created with Inkscape (http://www.inkscape.org/) -->

<svg
   width="210mm"
   height="297mm"
   viewBox="0 0 210 297"
   version="1.1"
   id="svg9230"
   inkscape:version="1.1.1 (3bf5ae0d25, 2021-09-20, custom)"
   sodipodi:docname="San_Antonio_de_Padua_logo_cafe.svg"
   xmlns:inkscape="http://www.inkscape.org/namespaces/inkscape"
   xmlns:sodipodi="http://sodipodi.sourceforge.net/DTD/sodipodi-0.dtd"
   xmlns:xlink="http://www.w3.org/1999/xlink"
   xmlns="http://www.w3.org/2000/svg"
   xmlns:svg="http://www.w3.org/2000/svg">
  <sodipodi:namedview
     id="namedview9232"
     pagecolor="#ffffff"
     bordercolor="#666666"
     borderopacity="1.0"
     inkscape:pageshadow="2"
     inkscape:pageopacity="0.0"
     inkscape:pagecheckerboard="0"
     inkscape:document-units="mm"
     showgrid="false"
     showguides="true"
     inkscape:guide-bbox="true"
     inkscape:zoom="0.64"
     inkscape:cx="477.34375"
     inkscape:cy="503.125"
     inkscape:window-width="1916"
     inkscape:window-height="1074"
     inkscape:window-x="1922"
     inkscape:window-y="4"
     inkscape:window-maximized="0"
     inkscape:current-layer="layer1" />
  <defs
     id="defs9227">
    <pattern
       inkscape:collect="always"
       xlink:href="#pattern2894"
       id="pattern9166"
       patternTransform="matrix(0.26458333,0,0,0.26458333,-7.1645464,-607.43758)" />
    <pattern
       patternUnits="userSpaceOnUse"
       width="14.9778"
       height="14.9778"
       patternTransform="translate(1045.8855,-2281.3938)"
       id="pattern2894">
      <path
         id="rect2765"
         style="fill:none;stroke:#552200"
         d="M 0.5,0.5 H 14.4778 V 14.4778 H 0.5 Z" />
    </pattern>
  </defs>
  <g
     inkscape:label="Layer 1"
     inkscape:groupmode="layer"
     id="layer1">
    <g
       id="g9551"
       transform="translate(-0.81106905,4.1517548)">
      <path
         id="path14611"
         style="fill:url(#pattern9166);fill-opacity:1;stroke:#552400;stroke-width:2.62732;stroke-miterlimit:4;stroke-dasharray:none;stroke-opacity:1"
         d="m 105.25736,41.767883 c -1.56697,-5.29e-4 -3.13354,0.582094 -4.70051,1.749767 -3.133908,2.335342 -6.268162,6.996718 -9.401993,13.998111 -3.133936,7.001383 -6.267556,16.328327 -9.401492,27.995708 -3.13391,11.667376 -6.268085,25.661181 -9.401995,41.994331 -3.133937,16.33358 -6.268085,34.99743 -9.402022,55.99193 H 147.5654 c -3.13394,-20.9945 -6.26756,-39.66285 -9.40149,-55.99193 -3.13394,-16.32865 -6.26809,-30.331605 -9.40203,-41.994331 -3.1338,-11.662714 -6.26755,-20.998995 -9.40149,-27.995708 -3.13393,-6.99672 -6.26808,-11.667429 -9.40202,-13.998111 -1.56694,-1.165339 -3.13402,-1.749182 -4.70101,-1.749767 z" />
      <rect
         style="fill:#000000;fill-opacity:1;stroke:#552400;stroke-width:3.96875;stroke-linejoin:bevel;stroke-miterlimit:4;stroke-dasharray:none;stroke-opacity:1"
         id="rect14613"
         width="0.99750304"
         height="94.309471"
         x="104.75861"
         y="67.390915" />
      <rect
         style="fill:#000000;fill-opacity:1;stroke:#552400;stroke-width:3.96875;stroke-linejoin:bevel;stroke-miterlimit:4;stroke-dasharray:none;stroke-opacity:1"
         id="rect14615"
         width="1.2605174"
         height="30.385981"
         x="-90.763275"
         y="90.064346"
         transform="rotate(-90)" />
      <path
         style="fill:none;stroke:#552400;stroke-width:8.07617;stroke-linecap:butt;stroke-linejoin:miter;stroke-miterlimit:4;stroke-dasharray:none;stroke-opacity:1"
         d="M 25.62852,181.28279 H 183.89388"
         id="path14617" />
      <path
         style="fill:none;stroke:#552400;stroke-width:7.99917;stroke-linecap:butt;stroke-linejoin:miter;stroke-miterlimit:4;stroke-dasharray:none;stroke-opacity:1"
         d="M 27.129713,201.62489 H 182.39269"
         id="path14627" />
      <rect
         style="fill:none;fill-opacity:1;stroke:#552400;stroke-width:3.45072;stroke-linejoin:miter;stroke-miterlimit:4;stroke-dasharray:none;stroke-opacity:1"
         id="rect14651"
         width="154.80508"
         height="42.327045"
         x="27.38167"
         y="180.79225" />
      <rect
         style="fill:none;fill-opacity:1;stroke:#552400;stroke-width:2.72521;stroke-linejoin:miter;stroke-miterlimit:4;stroke-dasharray:none;stroke-opacity:1"
         id="rect14799"
         width="182.15181"
         height="20.780745"
         x="13.685283"
         y="224.29004" />
      <rect
         style="fill:#552400;fill-opacity:1;stroke:#552400;stroke-width:3.53473;stroke-linecap:butt;stroke-linejoin:miter;stroke-miterlimit:4;stroke-dasharray:none;stroke-opacity:1"
         id="rect14947"
         width="10.716199"
         height="13.509397"
         x="182.23428"
         y="209.61189" />
      <rect
         style="fill:#552400;fill-opacity:1;stroke:#552400;stroke-width:3.55608;stroke-linecap:butt;stroke-linejoin:miter;stroke-miterlimit:4;stroke-dasharray:none;stroke-opacity:1"
         id="rect14947-6"
         width="10.787974"
         height="13.58201"
         x="16.535625"
         y="209.57559" />
      <rect
         style="fill:none;fill-opacity:1;stroke:#552400;stroke-width:2.39878;stroke-linejoin:miter;stroke-miterlimit:4;stroke-dasharray:none;stroke-opacity:1"
         id="rect15095"
         width="182.09216"
         height="7.5940952"
         x="13.729274"
         y="231.44528" />
      <path
         style="fill:none;stroke:#552400;stroke-width:1.5875;stroke-linecap:butt;stroke-linejoin:miter;stroke-miterlimit:4;stroke-dasharray:none;stroke-opacity:1"
         d="m 47.200369,203.59832 v 11.44747"
         id="path17830" />
      <path
         style="fill:none;stroke:#552400;stroke-width:1.5875;stroke-linecap:butt;stroke-linejoin:miter;stroke-miterlimit:4;stroke-dasharray:none;stroke-opacity:1"
         d="m 38.972039,179.67942 v 11.44747"
         id="path18062" />
      <path
         style="fill:none;stroke:#552400;stroke-width:1.5875;stroke-linecap:butt;stroke-linejoin:miter;stroke-miterlimit:4;stroke-dasharray:none;stroke-opacity:1"
         d="m 46.130897,178.02007 v 11.44747"
         id="path18064" />
      <path
         style="fill:none;stroke:#552400;stroke-width:1.5875;stroke-linecap:butt;stroke-linejoin:miter;stroke-miterlimit:4;stroke-dasharray:none;stroke-opacity:1"
         d="m 51.672039,183.38358 v 11.44747"
         id="path18066" />
      <path
         style="fill:none;stroke:#552400;stroke-width:1.5875;stroke-linecap:butt;stroke-linejoin:miter;stroke-miterlimit:4;stroke-dasharray:none;stroke-opacity:1"
         d="m 59.245155,177.67637 v 11.44747"
         id="path18068" />
      <path
         style="fill:none;stroke:#552400;stroke-width:1.5875;stroke-linecap:butt;stroke-linejoin:miter;stroke-miterlimit:4;stroke-dasharray:none;stroke-opacity:1"
         d="m 70.851553,183.27561 v 11.44747"
         id="path18070" />
      <path
         style="fill:none;stroke:#552400;stroke-width:1.5875;stroke-linecap:butt;stroke-linejoin:miter;stroke-miterlimit:4;stroke-dasharray:none;stroke-opacity:1"
         d="m 79.52343,178.11832 v 11.44747"
         id="path18072" />
      <path
         id="path37593"
         style="fill:none;stroke:#552400;stroke-width:3.48356;stroke-linecap:square;stroke-opacity:1;paint-order:fill markers stroke"
         d="m 105.25733,41.767349 c -1.56694,0 -3.13401,0.58211 -4.70098,1.749769 -3.133937,2.335345 -6.267715,6.996747 -9.401493,13.998125 -3.133936,7.001404 -6.268085,16.328839 -9.402021,27.996223 -3.133937,11.667389 -6.267556,25.660694 -9.401493,41.993814 -3.133936,16.33361 -6.268058,34.99795 -9.401995,55.99245 h 84.616002 c -0.12476,-0.83584 -0.24935,-1.60964 -0.37413,-2.43811 h 9.77046 v -0.1111 h 19.55644 v -4.61573 c 0.32451,-0.57193 0.4899,-1.16814 0.49041,-1.76787 -0.005,-2.6212 -3.12719,-4.92421 -7.65588,-5.64719 -0.0998,-3.03773 -2.31286,-5.38691 -5.35223,-5.38779 -3.78277,0.69723 -5.22724,1.35626 -5.53551,1.28143 -0.17158,-0.0416 -0.0773,1.24606 -0.0201,-1.63179 1.1e-4,-3.54528 -2.96814,-6.41934 -6.62958,-6.41924 -3.66126,1.9e-4 -6.75368,4.15211 -6.75357,7.69721 0.006,0.42976 -0.0939,-0.42008 0,0 l 2.12957,16.60207 c -2.29947,-14.4948 -6.72841,-41.57319 -9.02788,-53.55434 -3.13394,-16.32863 -6.26756,-30.331115 -9.40149,-41.993814 -3.13381,-11.6627 -6.26809,-20.999502 -9.40202,-27.996223 -3.13394,-6.996721 -6.26756,-11.667437 -9.4015,-13.998125 -1.56696,-1.165331 -3.13404,-1.749161 -4.70101,-1.749769 z"
         sodipodi:nodetypes="sssssccccccccccscscccsssss" />
      <path
         style="fill:none;stroke:#552400;stroke-width:1.5875;stroke-linecap:butt;stroke-linejoin:miter;stroke-miterlimit:4;stroke-dasharray:none;stroke-opacity:1"
         d="m 95.55882,179.7504 v 11.44747"
         id="path18074" />
      <path
         style="fill:none;stroke:#552400;stroke-width:1.5875;stroke-linecap:butt;stroke-linejoin:miter;stroke-miterlimit:4;stroke-dasharray:none;stroke-opacity:1"
         d="m 98.989408,181.85045 v 11.44747"
         id="path18076" />
      <path
         style="fill:none;stroke:#552400;stroke-width:1.5875;stroke-linecap:butt;stroke-linejoin:miter;stroke-miterlimit:4;stroke-dasharray:none;stroke-opacity:1"
         d="m 98.989408,181.85045 v 11.44747"
         id="path18078" />
      <path
         style="fill:none;stroke:#552400;stroke-width:1.5875;stroke-linecap:butt;stroke-linejoin:miter;stroke-miterlimit:4;stroke-dasharray:none;stroke-opacity:1"
         d="m 115.00808,184.53605 v 11.44747"
         id="path18080" />
      <path
         style="fill:none;stroke:#552400;stroke-width:1.5875;stroke-linecap:butt;stroke-linejoin:miter;stroke-miterlimit:4;stroke-dasharray:none;stroke-opacity:1"
         d="m 117.32244,179.78379 v 11.44747"
         id="path18082" />
      <path
         style="fill:none;stroke:#552400;stroke-width:1.5875;stroke-linecap:butt;stroke-linejoin:miter;stroke-miterlimit:4;stroke-dasharray:none;stroke-opacity:1"
         d="m 132.90216,180.1431 v 11.44747"
         id="path18084" />
      <path
         style="fill:none;stroke:#552400;stroke-width:1.5875;stroke-linecap:butt;stroke-linejoin:miter;stroke-miterlimit:4;stroke-dasharray:none;stroke-opacity:1"
         d="m 132.90216,180.1431 v 11.44747"
         id="path18086" />
      <path
         style="fill:none;stroke:#552400;stroke-width:1.5875;stroke-linecap:butt;stroke-linejoin:miter;stroke-miterlimit:4;stroke-dasharray:none;stroke-opacity:1"
         d="m 132.90216,180.1431 v 11.44747"
         id="path18088" />
      <path
         style="fill:none;stroke:#552400;stroke-width:1.5875;stroke-linecap:butt;stroke-linejoin:miter;stroke-miterlimit:4;stroke-dasharray:none;stroke-opacity:1"
         d="m 170.72076,180.06334 v 11.44747"
         id="path18090" />
      <path
         style="fill:none;stroke:#552400;stroke-width:1.5875;stroke-linecap:butt;stroke-linejoin:miter;stroke-miterlimit:4;stroke-dasharray:none;stroke-opacity:1"
         d="m 169.13326,192.03998 v 11.44747"
         id="path18092" />
      <path
         style="fill:none;stroke:#552400;stroke-width:1.5875;stroke-linecap:butt;stroke-linejoin:miter;stroke-miterlimit:4;stroke-dasharray:none;stroke-opacity:1"
         d="m 149.55409,191.51081 v 11.44747"
         id="path18094" />
      <path
         style="fill:none;stroke:#552400;stroke-width:1.5875;stroke-linecap:butt;stroke-linejoin:miter;stroke-miterlimit:4;stroke-dasharray:none;stroke-opacity:1"
         d="m 132.09159,193.62748 v 11.44747"
         id="path18096" />
      <path
         style="fill:none;stroke:#552400;stroke-width:1.5875;stroke-linecap:butt;stroke-linejoin:miter;stroke-miterlimit:4;stroke-dasharray:none;stroke-opacity:1"
         d="m 172.3399,201.92008 v 11.44747"
         id="path18098" />
      <path
         style="fill:none;stroke:#552400;stroke-width:1.5875;stroke-linecap:butt;stroke-linejoin:miter;stroke-miterlimit:4;stroke-dasharray:none;stroke-opacity:1"
         d="m 156.95052,205.18324 v 11.44747"
         id="path18100" />
      <path
         style="fill:none;stroke:#552400;stroke-width:1.5875;stroke-linecap:butt;stroke-linejoin:miter;stroke-miterlimit:4;stroke-dasharray:none;stroke-opacity:1"
         d="m 156.95052,205.18324 v 11.44747"
         id="path18102" />
      <path
         style="fill:none;stroke:#552400;stroke-width:1.5875;stroke-linecap:butt;stroke-linejoin:miter;stroke-miterlimit:4;stroke-dasharray:none;stroke-opacity:1"
         d="m 129.25184,202.21456 v 11.44747"
         id="path18104" />
      <path
         style="fill:none;stroke:#552400;stroke-width:1.85664;stroke-linecap:butt;stroke-linejoin:miter;stroke-miterlimit:4;stroke-dasharray:none;stroke-opacity:1"
         d="m 115.02443,203.69753 v 15.65811"
         id="path18106" />
      <path
         style="fill:none;stroke:#552400;stroke-width:1.5875;stroke-linecap:butt;stroke-linejoin:miter;stroke-miterlimit:4;stroke-dasharray:none;stroke-opacity:1"
         d="m 100.25975,204.95224 v 11.44747"
         id="path18108" />
      <path
         style="fill:none;stroke:#552400;stroke-width:1.85664;stroke-linecap:butt;stroke-linejoin:miter;stroke-miterlimit:4;stroke-dasharray:none;stroke-opacity:1"
         d="m 97.813917,203.31453 v 15.6581"
         id="path18110" />
      <path
         style="fill:none;stroke:#552400;stroke-width:1.5875;stroke-linecap:butt;stroke-linejoin:miter;stroke-miterlimit:4;stroke-dasharray:none;stroke-opacity:1"
         d="m 93.150874,200.61204 v 11.44748"
         id="path18112" />
      <path
         style="fill:none;stroke:#552400;stroke-width:1.5875;stroke-linecap:butt;stroke-linejoin:miter;stroke-miterlimit:4;stroke-dasharray:none;stroke-opacity:1"
         d="m 87.062864,202.04832 v 11.44747"
         id="path18114" />
      <path
         style="fill:none;stroke:#552400;stroke-width:1.5875;stroke-linecap:butt;stroke-linejoin:miter;stroke-miterlimit:4;stroke-dasharray:none;stroke-opacity:1"
         d="m 83.28353,203.98368 v 11.44747"
         id="path18116" />
      <path
         style="fill:none;stroke:#552400;stroke-width:1.5875;stroke-linecap:butt;stroke-linejoin:miter;stroke-miterlimit:4;stroke-dasharray:none;stroke-opacity:1"
         d="m 70.883144,200.58985 v 11.44747"
         id="path18118" />
      <path
         style="fill:none;stroke:#552400;stroke-width:1.5875;stroke-linecap:butt;stroke-linejoin:miter;stroke-miterlimit:4;stroke-dasharray:none;stroke-opacity:1"
         d="m 51.061381,205.32666 v 11.44747"
         id="path18120" />
      <path
         style="fill:none;stroke:#552400;stroke-width:1.5875;stroke-linecap:butt;stroke-linejoin:miter;stroke-miterlimit:4;stroke-dasharray:none;stroke-opacity:1"
         d="m 40.630236,200.44734 v 11.44747"
         id="path18122" />
      <path
         style="fill:none;stroke:#552400;stroke-width:1.5875;stroke-linecap:butt;stroke-linejoin:miter;stroke-miterlimit:4;stroke-dasharray:none;stroke-opacity:1"
         d="m 35.38847,199.81469 v 11.44747"
         id="path18124" />
      <path
         id="path37591"
         style="fill:none;fill-opacity:1;stroke:#552400;stroke-width:3.43958;stroke-linecap:square;stroke-linejoin:miter;stroke-miterlimit:4;stroke-dasharray:none;stroke-opacity:1;paint-order:fill markers stroke"
         d="m 68.258848,145.58672 -2.895944,5.27823 c -1.131015,-0.95978 -2.56548,-1.48778 -4.04884,-1.49035 -2.968016,0.007 -5.524817,2.09355 -6.127803,4.9997 -0.563298,-0.13962 -1.141492,-0.21024 -1.721855,-0.21031 -3.95478,5e-5 -7.160736,3.206 -7.160789,7.16078 0.0048,0.43498 0.04926,0.86861 0.132794,1.29554 -0.995045,-0.18455 -2.004827,-0.27811 -3.016858,-0.27956 -9.209961,-1.9e-4 -16.676158,7.46601 -16.675999,16.67597 0.01693,1.36835 0.202353,2.72939 0.55192,4.05247 l -0.857329,0.4501 h 0.965332 c 5.966857,0.15166 27.756591,-2.49885 32.036279,-0.0196 l 2.980187,-0.003 c 1.229757,-7.93734 2.505446,-16.02259 3.724831,-23.92619 0.915194,-1.10406 1.42457,-2.4883 1.443328,-3.92224 -0.0026,-0.81954 -0.163909,-1.63081 -0.477493,-2.38797 0.392456,-2.58955 0.781235,-5.16755 1.148239,-7.67448 z"
         sodipodi:nodetypes="cccccccccccccccccsc" />
      <path
         id="path37595"
         style="fill:none;fill-opacity:1;stroke:#552400;stroke-width:2.64583;stroke-linecap:square;stroke-linejoin:miter;stroke-miterlimit:4;stroke-dasharray:none;stroke-opacity:1;paint-order:fill markers stroke"
         d="m 75.07634,84.676124 c -2.207869,0.0058 -4.776761,1.240181 -5.789057,3.201352 -0.449739,-0.28403 -0.96266,-0.433943 -1.485186,-0.434075 -1.611868,-7.9e-5 -2.918592,1.395044 -2.918671,3.116074 -1.85e-4,1.72125 1.306618,3.11669 2.918671,3.11661 0.512816,-0.003 -0.442833,0.27615 0,0 1.00338,1.98824 5.783951,1.21322 8.011901,1.21838 3.266837,3e-5 4.629415,-1.04132 4.629177,-4.30654 -2.7e-5,-1.53604 1.488096,-4.37018 0.527208,-5.421343 -1.08159,-1.18319 -4.164197,-0.490484 -5.894043,-0.490458 z"
         sodipodi:nodetypes="cccsccccsc" />
      <path
         id="path37597"
         style="fill:none;fill-opacity:1;stroke:#552400;stroke-width:2.64583;stroke-linecap:square;stroke-linejoin:miter;stroke-miterlimit:4;stroke-dasharray:none;stroke-opacity:1;paint-order:fill markers stroke"
         d="m 150.10842,104.83472 c -20.31466,2.29246 -15.40757,5.35043 -11.49234,19.89138 0.60195,2.23559 4.05606,-2.11072 4.91186,-0.97473 1.2565,2.16604 3.07771,3.86014 5.65081,3.86594 2.01031,-0.008 3.9655,-0.57529 5.58157,-1.62058 1.54014,0.81233 3.33883,1.24534 5.17748,1.24643 4.04574,-0.008 7.64135,-2.08862 8.95553,-5.18367 1.25706,0.0815 2.66756,-0.75213 3.96576,-0.74956 2.68584,0 5.25751,-2.11844 7.66929,-1.89241 6.44803,0.60434 9.39814,-2.79368 9.17311,-4.69479 -1.1e-4,-0.59642 -0.59738,-1.90214 -2.34924,-2.34508 -1.81633,-0.45929 -4.83444,0.0718 -6.7138,-0.18653 -3.00995,-0.41376 -3.82852,-1.06667 -6.22855,-0.17002 -8.1492,-5.1934 -12.50974,-7.21662 -24.30148,-7.18638 z"
         sodipodi:nodetypes="csccccccscsscc" />
      <path
         id="path37599"
         style="fill:none;fill-opacity:1;stroke:#552400;stroke-width:2.76812;stroke-linecap:square;stroke-linejoin:miter;stroke-miterlimit:4;stroke-dasharray:none;stroke-opacity:1;paint-order:fill markers stroke"
         d="m 66.421475,111.74543 c -4.94456,0.007 -9.543785,1.43682 -12.207002,3.79616 -1.924711,-0.29562 -4.187851,-0.12856 -6.4058,0.47284 -3.538961,0.96845 -6.495151,2.91184 -7.69411,5.05809 -1.275477,-0.30096 -2.700231,-0.4586 -4.147555,-0.45889 -3.568674,0 -6.781747,0.9512 -8.12972,2.40503 -2.339922,0.0778 -4.16769,1.15888 -4.172876,2.46806 2.7e-5,1.36845 1.986254,2.4778 4.436428,2.47788 0.887412,-0.003 1.75342,-0.15238 2.48613,-0.43201 1.53924,0.52546 3.431831,0.81084 5.380038,0.81131 2.878296,-0.003 5.570934,-0.62576 7.207329,-1.66759 2.115158,0.5719 4.843277,0.4816 7.52512,-0.24907 1.423802,-0.39198 2.780665,-0.95031 3.972348,-1.63455 2.726294,2.13651 7.095094,3.40389 11.74967,3.40858 7.406614,0.23815 7.373885,-3.61376 7.835106,-8.37282 0.720249,-7.43125 3.641593,-10.91401 -2.494703,-8.28172 -1.37967,0.59182 -2.79945,-0.45787 -5.340403,0.1987 z"
         sodipodi:nodetypes="ccccccccccccccssc" />
    </g>
  </g>
</svg>
