<?xml version="1.0" encoding="UTF-8" standalone="no"?>
<!-- Created with Inkscape (http://www.inkscape.org/) -->

<svg
   width="210mm"
   height="297mm"
   viewBox="0 0 210 297"
   version="1.1"
   id="svg1479"
   inkscape:version="1.1.1 (3bf5ae0d25, 2021-09-20)"
   sodipodi:docname="San_Antonio_de_Padua_logo_blanco.svg"
   xmlns:inkscape="http://www.inkscape.org/namespaces/inkscape"
   xmlns:sodipodi="http://sodipodi.sourceforge.net/DTD/sodipodi-0.dtd"
   xmlns:xlink="http://www.w3.org/1999/xlink"
   xmlns="http://www.w3.org/2000/svg"
   xmlns:svg="http://www.w3.org/2000/svg"
   xmlns:rdf="http://www.w3.org/1999/02/22-rdf-syntax-ns#"
   xmlns:cc="http://creativecommons.org/ns#"
   xmlns:dc="http://purl.org/dc/elements/1.1/">
  <defs
     id="defs1474">
    <pattern
       inkscape:collect="always"
       xlink:href="#pattern4914"
       id="pattern1676"
       patternTransform="matrix(0.26458333,0,0,0.26458333,-61.916802,-93.694191)" />
    <pattern
       patternUnits="userSpaceOnUse"
       width="859.8129"
       height="859.81296"
       patternTransform="translate(1408.1978,135.32025)"
       id="pattern9023">
      <path
         d="M 2,2 V 859.81296 M 17,2 V 859.81296 M 32,2 V 859.81296 M 47,2 V 859.81296 M 62,2 V 859.81296 M 77,2 V 859.81296 M 92,2 V 859.81296 M 107,2 V 859.81296 M 122,2 V 859.81296 M 137,2 V 859.81296 M 152,2 V 859.81296 M 167,2 V 859.81296 M 182,2 V 859.81296 M 197,2 V 859.81296 M 212,2 V 859.81296 M 227,2 V 859.81296 M 242,2 V 859.81296 M 257,2 V 859.81296 M 272,2 V 859.81296 M 287,2 V 859.81296 M 302,2 V 859.81296 M 317,2 V 859.81296 M 332,2 V 859.81296 M 347,2 V 859.81296 M 362,2 V 859.81296 M 377,2 V 859.81296 M 392,2 V 859.81296 M 407,2 V 859.81296 M 422,2 V 859.81296 M 437,2 V 859.81296 M 452,2 V 859.81296 M 467,2 V 859.81296 M 482,2 V 859.81296 M 497,2 V 859.81296 M 512,2 V 859.81296 M 527,2 V 859.81296 M 542,2 V 859.81296 M 557,2 V 859.81296 M 572,2 V 859.81296 M 587,2 V 859.81296 M 602,2 V 859.81296 M 617,2 V 859.81296 M 632,2 V 859.81296 M 647,2 V 859.81296 M 662,2 V 859.81296 M 677,2 V 859.81296 M 692,2 V 859.81296 M 707,2 V 859.81296 M 722,2 V 859.81296 M 737,2 V 859.81296 M 752,2 V 859.81296 M 767,2 V 859.81296 M 782,2 V 859.81296 M 797,2 V 859.81296 M 812,2 V 859.81296 M 827,2 V 859.81296 M 842,2 V 859.81296 M 857,2 V 859.81296 M 2,2 H 859.8129 M 2,17 H 859.8129 M 2,32 H 859.8129 M 2,47 H 859.8129 M 2,62 H 859.8129 M 2,77 H 859.8129 M 2,92 H 859.8129 M 2,107 H 859.8129 M 2,122 H 859.8129 M 2,137 H 859.8129 M 2,152 H 859.8129 M 2,167 H 859.8129 M 2,182 H 859.8129 M 2,197 H 859.8129 M 2,212 H 859.8129 M 2,227 H 859.8129 M 2,241.99996 H 859.8129 M 2,256.99996 H 859.8129 M 2,271.99996 H 859.8129 M 2,286.99996 H 859.8129 M 2,301.99996 H 859.8129 M 2,316.99996 H 859.8129 M 2,331.99996 H 859.8129 M 2,346.99996 H 859.8129 M 2,361.99996 H 859.8129 M 2,376.99996 H 859.8129 M 2,391.99996 H 859.8129 M 2,406.99996 H 859.8129 M 2,421.99996 H 859.8129 M 2,436.99996 H 859.8129 M 2,451.99996 H 859.8129 M 2,466.99996 H 859.8129 M 2,481.99996 H 859.8129 M 2,496.99996 H 859.8129 M 2,511.99996 H 859.8129 M 2,526.99996 H 859.8129 M 2,541.99996 H 859.8129 M 2,556.99996 H 859.8129 M 2,571.99996 H 859.8129 M 2,586.99996 H 859.8129 M 2,601.99996 H 859.8129 M 2,616.99996 H 859.8129 M 2,631.99996 H 859.8129 M 2,646.99996 H 859.8129 M 2,661.99996 H 859.8129 M 2,676.99996 H 859.8129 M 2,691.99996 H 859.8129 M 2,706.99996 H 859.8129 M 2,721.99996 H 859.8129 M 2,736.99996 H 859.8129 M 2,751.99996 H 859.8129 M 2,766.99996 H 859.8129 M 2,781.99996 H 859.8129 M 2,796.99996 H 859.8129 M 2,811.99996 H 859.8129 M 2,826.99996 H 859.8129 M 2,841.99996 H 859.8129 M 2,856.99996 h 857.8129"
         style="fill:none;stroke:#000000;stroke-width:4px"
         id="path8741" />
    </pattern>
    <pattern
       patternUnits="userSpaceOnUse"
       width="18.000005"
       height="18.000001"
       patternTransform="translate(294.75801,-1851.179)"
       id="pattern4914">
      <rect
         style="fill:none;fill-opacity:1;stroke:#ffffff;stroke-width:0.542756;stroke-miterlimit:4;stroke-dasharray:none;stroke-opacity:1"
         id="rect4684"
         width="17.457249"
         height="17.457245"
         x="0.27137801"
         y="0.27137801" />
    </pattern>
  </defs>
  <sodipodi:namedview
     id="base"
     pagecolor="#ffffff"
     bordercolor="#666666"
     borderopacity="1.0"
     inkscape:pageopacity="0.0"
     inkscape:pageshadow="2"
     inkscape:zoom="0.49497475"
     inkscape:cx="-364.66507"
     inkscape:cy="272.74119"
     inkscape:document-units="mm"
     inkscape:pagecheckerboard="0"
     showgrid="false"
     inkscape:window-width="1916"
     inkscape:window-height="1074"
     inkscape:window-x="1922"
     inkscape:window-y="4"
     inkscape:window-maximized="1"
     inkscape:current-layer="svg1479" />
  <metadata
     id="metadata1477">
    <rdf:RDF>
      <cc:Work
         rdf:about="">
        <dc:format>image/svg+xml</dc:format>
        <dc:type
           rdf:resource="http://purl.org/dc/dcmitype/StillImage" />
      </cc:Work>
    </rdf:RDF>
  </metadata>
  <g
     id="g3105">
    <path
       id="path4919"
       style="fill:url(#pattern1676);fill-opacity:1;stroke:#ffffff;stroke-width:2.62732;stroke-miterlimit:4;stroke-dasharray:none;stroke-opacity:1"
       d="m 105.51358,46.205413 c -1.56697,0 -3.13352,0.58208 -4.70049,1.74974 -3.133926,2.33534 -6.268206,6.99672 -9.402006,13.99812 -3.13393,7.00138 -6.26756,16.32831 -9.40149,27.9957 -3.13394,11.667377 -6.26808,25.661187 -9.40201,41.994347 -3.13394,16.33357 -6.26808,34.99741 -9.40201,55.99192 H 147.8216 c -3.13394,-20.99451 -6.26756,-39.66284 -9.40149,-55.99192 -3.13394,-16.32866 -6.26809,-30.33163 -9.40203,-41.994347 -3.1338,-11.6627 -6.26755,-20.99898 -9.40149,-27.9957 -3.13393,-6.99672 -6.26807,-11.66743 -9.40201,-13.99812 -1.56696,-1.16533 -3.13403,-1.74916 -4.701,-1.74974 z" />
    <g
       id="g37701"
       transform="matrix(0.26458333,0,0,0.26458333,-94.956284,16.996043)"
       style="stroke:#ffffff;stroke-opacity:1;fill:none;fill-opacity:1">
      <path
         id="path14611"
         style="fill:none;fill-opacity:1;stroke:#ffffff;stroke-width:9.93003;stroke-miterlimit:4;stroke-dasharray:none;stroke-opacity:1"
         d="m 757.6814,110.39762 c -5.9224,-0.002 -11.8433,2.20004 -17.7657,6.61329 -11.8447,8.82649 -23.6907,26.44429 -35.5351,52.90625 -11.8448,26.46192 -23.6884,61.71336 -35.5332,105.81055 -11.8447,44.09718 -23.6904,96.98715 -35.5351,158.71875 -11.8448,61.7332 -23.6904,132.27375 -35.5352,211.62305 H 917.5858 C 905.741,566.72021 893.8974,496.16266 882.0526,434.44646 870.2078,372.73186 858.3622,319.80729 846.5174,275.72771 834.6731,231.64816 822.829,196.36143 810.9842,169.91716 c -11.8448,-26.4443 -23.6904,-44.09737 -35.5352,-52.90625 -5.9223,-4.40443 -11.8451,-6.61108 -17.7676,-6.61329 z" />
      <rect
         style="fill:none;fill-opacity:1;stroke:#ffffff;stroke-width:15;stroke-linejoin:bevel;stroke-miterlimit:4;stroke-dasharray:none;stroke-opacity:1"
         id="rect14613"
         width="3.7700903"
         height="356.44525"
         x="755.79645"
         y="207.24258" />
      <rect
         style="fill:none;fill-opacity:1;stroke:#ffffff;stroke-width:15;stroke-linejoin:bevel;stroke-miterlimit:4;stroke-dasharray:none;stroke-opacity:1"
         id="rect14615"
         width="4.7641602"
         height="114.84465"
         x="-295.57907"
         y="700.25909"
         transform="rotate(-90)" />
      <path
         style="fill:none;stroke:#ffffff;stroke-width:30.5241;stroke-linecap:butt;stroke-linejoin:miter;stroke-miterlimit:4;stroke-dasharray:none;stroke-opacity:1;fill-opacity:1"
         d="m 456.7221,635.70008 h 598.1683"
         id="path14617" />
      <path
         style="fill:none;stroke:#ffffff;stroke-width:30.2331;stroke-linecap:butt;stroke-linejoin:miter;stroke-miterlimit:4;stroke-dasharray:none;stroke-opacity:1;fill-opacity:1"
         d="m 462.3959,712.5836 h 586.8207"
         id="path14627" />
      <rect
         style="fill:none;fill-opacity:1;stroke:#ffffff;stroke-width:13.0421;stroke-linejoin:miter;stroke-miterlimit:4;stroke-dasharray:none;stroke-opacity:1"
         id="rect14651"
         width="585.09009"
         height="159.97624"
         x="463.34818"
         y="633.84607" />
      <rect
         style="fill:none;fill-opacity:1;stroke:#ffffff;stroke-width:10.3;stroke-linejoin:miter;stroke-miterlimit:4;stroke-dasharray:none;stroke-opacity:1"
         id="rect14799"
         width="688.44781"
         height="78.541397"
         x="411.58231"
         y="798.24719" />
      <rect
         style="fill:none;fill-opacity:1;stroke:#ffffff;stroke-width:13.3596;stroke-linecap:butt;stroke-linejoin:miter;stroke-miterlimit:4;stroke-dasharray:none;stroke-opacity:1"
         id="rect14947"
         width="40.502171"
         height="51.059135"
         x="1048.6179"
         y="742.77069" />
      <rect
         style="fill:none;fill-opacity:1;stroke:#ffffff;stroke-width:13.4403;stroke-linecap:butt;stroke-linejoin:miter;stroke-miterlimit:4;stroke-dasharray:none;stroke-opacity:1"
         id="rect14947-6"
         width="40.773445"
         height="51.333584"
         x="422.35526"
         y="742.63348" />
      <rect
         style="fill:none;fill-opacity:1;stroke:#ffffff;stroke-width:9.06626;stroke-linejoin:miter;stroke-miterlimit:4;stroke-dasharray:none;stroke-opacity:1"
         id="rect15095"
         width="688.22235"
         height="28.702093"
         x="411.74857"
         y="825.29059" />
      <path
         style="fill:none;stroke:#ffffff;stroke-width:6;stroke-linecap:butt;stroke-linejoin:miter;stroke-miterlimit:4;stroke-dasharray:none;stroke-opacity:1;fill-opacity:1"
         d="m 538.2535,720.04225 v 43.26603"
         id="path17830" />
      <path
         style="fill:none;stroke:#ffffff;stroke-width:6;stroke-linecap:butt;stroke-linejoin:miter;stroke-miterlimit:4;stroke-dasharray:none;stroke-opacity:1;fill-opacity:1"
         d="m 507.1543,629.64009 v 43.26603"
         id="path18062" />
      <path
         style="fill:none;stroke:#ffffff;stroke-width:6;stroke-linecap:butt;stroke-linejoin:miter;stroke-miterlimit:4;stroke-dasharray:none;stroke-opacity:1;fill-opacity:1"
         d="m 534.2114,623.36854 v 43.26603"
         id="path18064" />
      <path
         style="fill:none;stroke:#ffffff;stroke-width:6;stroke-linecap:butt;stroke-linejoin:miter;stroke-miterlimit:4;stroke-dasharray:none;stroke-opacity:1;fill-opacity:1"
         d="m 555.1543,643.64009 v 43.26603"
         id="path18066" />
      <path
         style="fill:none;stroke:#ffffff;stroke-width:6;stroke-linecap:butt;stroke-linejoin:miter;stroke-miterlimit:4;stroke-dasharray:none;stroke-opacity:1;fill-opacity:1"
         d="m 583.7771,622.06951 v 43.26603"
         id="path18068" />
      <path
         style="fill:none;stroke:#ffffff;stroke-width:6;stroke-linecap:butt;stroke-linejoin:miter;stroke-miterlimit:4;stroke-dasharray:none;stroke-opacity:1;fill-opacity:1"
         d="m 627.6438,643.232 v 43.26603"
         id="path18070" />
      <path
         style="fill:none;stroke:#ffffff;stroke-width:6;stroke-linecap:butt;stroke-linejoin:miter;stroke-miterlimit:4;stroke-dasharray:none;stroke-opacity:1;fill-opacity:1"
         d="m 660.4194,623.73989 v 43.26603"
         id="path18072" />
      <path
         style="fill:none;stroke:#ffffff;stroke-width:6;stroke-linecap:butt;stroke-linejoin:miter;stroke-miterlimit:4;stroke-dasharray:none;stroke-opacity:1;fill-opacity:1"
         d="m 721.0256,629.90836 v 43.26603"
         id="path18074" />
      <path
         style="fill:none;stroke:#ffffff;stroke-width:6;stroke-linecap:butt;stroke-linejoin:miter;stroke-miterlimit:4;stroke-dasharray:none;stroke-opacity:1;fill-opacity:1"
         d="m 733.9916,637.84559 v 43.26603"
         id="path18076" />
      <path
         style="fill:none;stroke:#ffffff;stroke-width:6;stroke-linecap:butt;stroke-linejoin:miter;stroke-miterlimit:4;stroke-dasharray:none;stroke-opacity:1;fill-opacity:1"
         d="m 733.9916,637.84559 v 43.26603"
         id="path18078" />
      <path
         style="fill:none;stroke:#ffffff;stroke-width:6;stroke-linecap:butt;stroke-linejoin:miter;stroke-miterlimit:4;stroke-dasharray:none;stroke-opacity:1;fill-opacity:1"
         d="M 794.5346,647.99587 V 691.2619"
         id="path18080" />
      <path
         style="fill:none;stroke:#ffffff;stroke-width:6;stroke-linecap:butt;stroke-linejoin:miter;stroke-miterlimit:4;stroke-dasharray:none;stroke-opacity:1;fill-opacity:1"
         d="m 803.2818,630.03456 v 43.26603"
         id="path18082" />
      <path
         style="fill:none;stroke:#ffffff;stroke-width:6;stroke-linecap:butt;stroke-linejoin:miter;stroke-miterlimit:4;stroke-dasharray:none;stroke-opacity:1;fill-opacity:1"
         d="m 862.1658,631.39259 v 43.26603"
         id="path18084" />
      <path
         style="fill:none;stroke:#ffffff;stroke-width:6;stroke-linecap:butt;stroke-linejoin:miter;stroke-miterlimit:4;stroke-dasharray:none;stroke-opacity:1;fill-opacity:1"
         d="m 862.1658,631.39259 v 43.26603"
         id="path18086" />
      <path
         style="fill:none;stroke:#ffffff;stroke-width:6;stroke-linecap:butt;stroke-linejoin:miter;stroke-miterlimit:4;stroke-dasharray:none;stroke-opacity:1;fill-opacity:1"
         d="m 862.1658,631.39259 v 43.26603"
         id="path18088" />
      <path
         style="fill:none;stroke:#ffffff;stroke-width:6;stroke-linecap:butt;stroke-linejoin:miter;stroke-miterlimit:4;stroke-dasharray:none;stroke-opacity:1;fill-opacity:1"
         d="m 1005.1022,631.09115 v 43.26603"
         id="path18090" />
      <path
         style="fill:none;stroke:#ffffff;stroke-width:6;stroke-linecap:butt;stroke-linejoin:miter;stroke-miterlimit:4;stroke-dasharray:none;stroke-opacity:1;fill-opacity:1"
         d="m 999.1022,676.35718 v 43.26603"
         id="path18092" />
      <path
         style="fill:none;stroke:#ffffff;stroke-width:6;stroke-linecap:butt;stroke-linejoin:miter;stroke-miterlimit:4;stroke-dasharray:none;stroke-opacity:1;fill-opacity:1"
         d="m 925.1022,674.35718 v 43.26603"
         id="path18094" />
      <path
         style="fill:none;stroke:#ffffff;stroke-width:6;stroke-linecap:butt;stroke-linejoin:miter;stroke-miterlimit:4;stroke-dasharray:none;stroke-opacity:1;fill-opacity:1"
         d="m 859.1022,682.35718 v 43.26603"
         id="path18096" />
      <path
         style="fill:none;stroke:#ffffff;stroke-width:6;stroke-linecap:butt;stroke-linejoin:miter;stroke-miterlimit:4;stroke-dasharray:none;stroke-opacity:1;fill-opacity:1"
         d="m 1011.2218,713.69931 v 43.26603"
         id="path18098" />
      <path
         style="fill:none;stroke:#ffffff;stroke-width:6;stroke-linecap:butt;stroke-linejoin:miter;stroke-miterlimit:4;stroke-dasharray:none;stroke-opacity:1;fill-opacity:1"
         d="m 953.0572,726.03251 v 43.26603"
         id="path18100" />
      <path
         style="fill:none;stroke:#ffffff;stroke-width:6;stroke-linecap:butt;stroke-linejoin:miter;stroke-miterlimit:4;stroke-dasharray:none;stroke-opacity:1;fill-opacity:1"
         d="m 953.0572,726.03251 v 43.26603"
         id="path18102" />
      <path
         style="fill:none;stroke:#ffffff;stroke-width:6;stroke-linecap:butt;stroke-linejoin:miter;stroke-miterlimit:4;stroke-dasharray:none;stroke-opacity:1;fill-opacity:1"
         d="m 848.3693,714.8123 v 43.26603"
         id="path18104" />
      <path
         style="fill:none;stroke:#ffffff;stroke-width:7.01724;stroke-linecap:butt;stroke-linejoin:miter;stroke-miterlimit:4;stroke-dasharray:none;stroke-opacity:1;fill-opacity:1"
         d="m 794.5964,720.41723 v 59.18024"
         id="path18106" />
      <path
         style="fill:none;stroke:#ffffff;stroke-width:6;stroke-linecap:butt;stroke-linejoin:miter;stroke-miterlimit:4;stroke-dasharray:none;stroke-opacity:1;fill-opacity:1"
         d="m 738.7929,725.15941 v 43.26603"
         id="path18108" />
      <path
         style="fill:none;stroke:#ffffff;stroke-width:7.01724;stroke-linecap:butt;stroke-linejoin:miter;stroke-miterlimit:4;stroke-dasharray:none;stroke-opacity:1;fill-opacity:1"
         d="m 729.5488,718.96964 v 59.18024"
         id="path18110" />
      <path
         style="fill:none;stroke:#ffffff;stroke-width:6;stroke-linecap:butt;stroke-linejoin:miter;stroke-miterlimit:4;stroke-dasharray:none;stroke-opacity:1;fill-opacity:1"
         d="m 711.9247,708.75554 v 43.26603"
         id="path18112" />
      <path
         style="fill:none;stroke:#ffffff;stroke-width:6;stroke-linecap:butt;stroke-linejoin:miter;stroke-miterlimit:4;stroke-dasharray:none;stroke-opacity:1;fill-opacity:1"
         d="M 688.9149,714.18397 V 757.45"
         id="path18114" />
      <path
         style="fill:none;stroke:#ffffff;stroke-width:6;stroke-linecap:butt;stroke-linejoin:miter;stroke-miterlimit:4;stroke-dasharray:none;stroke-opacity:1;fill-opacity:1"
         d="m 674.6308,721.49871 v 43.26603"
         id="path18116" />
      <path
         style="fill:none;stroke:#ffffff;stroke-width:6;stroke-linecap:butt;stroke-linejoin:miter;stroke-miterlimit:4;stroke-dasharray:none;stroke-opacity:1;fill-opacity:1"
         d="M 627.7632,708.67167 V 751.9377"
         id="path18118" />
      <path
         style="fill:none;stroke:#ffffff;stroke-width:6;stroke-linecap:butt;stroke-linejoin:miter;stroke-miterlimit:4;stroke-dasharray:none;stroke-opacity:1;fill-opacity:1"
         d="m 552.8463,726.57454 v 43.26603"
         id="path18120" />
      <path
         style="fill:none;stroke:#ffffff;stroke-width:6;stroke-linecap:butt;stroke-linejoin:miter;stroke-miterlimit:4;stroke-dasharray:none;stroke-opacity:1;fill-opacity:1"
         d="m 513.4215,708.13304 v 43.26603"
         id="path18122" />
      <path
         style="fill:none;stroke:#ffffff;stroke-width:6;stroke-linecap:butt;stroke-linejoin:miter;stroke-miterlimit:4;stroke-dasharray:none;stroke-opacity:1;fill-opacity:1"
         d="m 493.6101,705.74191 v 43.26603"
         id="path18124" />
      <path
         id="path37591"
         style="fill:none;fill-opacity:1;stroke:#ffffff;stroke-width:13;stroke-linecap:square;stroke-linejoin:miter;stroke-miterlimit:4;stroke-dasharray:none;stroke-opacity:1;paint-order:fill markers stroke"
         d="m 617.8446,502.78583 -10.9453,19.9492 c -4.2747,-3.6275 -9.6963,-5.6231 -15.3027,-5.6328 -11.2177,0.028 -20.8812,7.9126 -23.1602,18.8965 -2.129,-0.5277 -4.3143,-0.7946 -6.5078,-0.7949 -14.9472,2e-4 -27.0642,12.1172 -27.0644,27.0644 0.018,1.644 0.1862,3.2829 0.5019,4.8965 -3.7608,-0.6975 -7.5773,-1.0511 -11.4023,-1.0566 -34.8093,-7e-4 -63.028,28.218 -63.0274,63.0273 0.064,5.1717 0.7648,10.3158 2.086,15.3164 l -3.2403,1.7012 h 3.6485 c 22.5519,0.5732 104.9068,-9.4445 121.082,-0.074 l 11.2637,-0.01 c 4.6479,-29.9994 9.4694,-60.5578 14.0781,-90.4297 3.459,-4.1728 5.3842,-9.4046 5.4551,-14.8242 -0.01,-3.0975 -0.6195,-6.1637 -1.8047,-9.0254 1.4833,-9.7873 2.9527,-19.5309 4.3398,-29.0059 z"
         sodipodi:nodetypes="cccccccccccccccccsc" />
      <path
         id="path37593"
         style="fill:none;stroke:#ffffff;stroke-width:13.1662;stroke-linecap:square;stroke-opacity:1;paint-order:fill markers stroke;fill-opacity:1"
         d="m 757.6814,110.39762 c -5.9223,0 -11.8451,2.2001 -17.7675,6.6133 -11.8448,8.8265 -23.689,26.4444 -35.5332,52.9063 -11.8448,26.462 -23.6904,61.7153 -35.5352,105.8125 -11.8448,44.0972 -23.6884,96.9853 -35.5332,158.7168 -11.8448,61.73331 -23.6903,132.27571 -35.5351,211.62501 h 319.8085 c -0.4715,-3.1591 -0.9424,-6.0837 -1.414,-9.2149 h 36.9277 v -0.4199 h 73.9141 v -17.4453 c 1.2265,-2.1616 1.8516,-4.415 1.8535,-6.6817 -0.019,-9.9069 -11.8193,-18.6112 -28.9356,-21.3437 -0.3771,-11.4812 -8.7415,-20.36 -20.2289,-20.3633 -14.2971,2.6352 -19.7565,5.126 -20.9216,4.8432 -0.6485,-0.1574 -0.292,4.7095 -0.076,-6.1674 4e-4,-13.3995 -11.2182,-24.2621 -25.0567,-24.2617 -13.8378,7e-4 -25.5257,15.693 -25.5253,29.0918 0.021,1.6243 -0.3547,-1.5877 0,0 l 8.0488,62.748 c -8.6909,-54.7835 -25.4302,-157.12701 -34.1211,-202.41011 -11.8448,-61.7145 -23.6884,-114.6373 -35.5332,-158.7168 -11.8443,-44.0795 -23.6904,-79.3682 -35.5352,-105.8125 -11.8448,-26.4443 -23.6884,-44.0974 -35.5332,-52.9063 -5.9224,-4.4044 -11.8452,-6.611 -17.7676,-6.6133 z"
         sodipodi:nodetypes="sssssccccccccccscscccsssss" />
      <path
         id="path37595"
         style="fill:none;fill-opacity:1;stroke:#ffffff;stroke-width:10;stroke-linecap:square;stroke-linejoin:miter;stroke-miterlimit:4;stroke-dasharray:none;stroke-opacity:1;paint-order:fill markers stroke"
         d="m 643.6115,272.57252 c -8.3447,0.022 -18.0539,4.6873 -21.8799,12.0996 -1.6998,-1.0735 -3.6384,-1.6401 -5.6133,-1.6406 -6.0921,-3e-4 -11.0309,5.2726 -11.0312,11.7773 -7e-4,6.5055 4.9384,11.7796 11.0312,11.7793 1.9382,-0.01 -1.6737,1.0437 0,0 3.7923,7.5146 21.8606,4.5854 30.2812,4.6049 12.3471,1e-4 17.497,-3.9357 17.4961,-16.2767 -10e-5,-5.8055 5.6243,-16.5172 1.9926,-20.4901 -4.0879,-4.4719 -15.7387,-1.8538 -22.2767,-1.8537 z"
         sodipodi:nodetypes="cccsccccsc" />
      <path
         id="path37597"
         style="fill:none;fill-opacity:1;stroke:#ffffff;stroke-width:10;stroke-linecap:square;stroke-linejoin:miter;stroke-miterlimit:4;stroke-dasharray:none;stroke-opacity:1;paint-order:fill markers stroke"
         d="m 927.1973,348.76252 c -76.7798,8.6644 -58.2333,20.2221 -43.4356,75.18 2.2751,8.4495 15.33,-7.9775 18.5645,-3.684 4.749,8.1866 11.6323,14.5895 21.3574,14.6114 7.598,-0.029 14.9877,-2.1743 21.0957,-6.125 5.821,3.0702 12.6192,4.7068 19.5684,4.7109 15.291,-0.029 28.8807,-7.894 33.8477,-19.5918 4.7511,0.3082 10.0821,-2.8427 14.9887,-2.833 10.1512,0 19.8709,-8.0067 28.9863,-7.1524 24.3705,2.2841 35.5205,-10.5588 34.67,-17.7441 -4e-4,-2.2542 -2.2578,-7.1892 -8.879,-8.8633 -6.8649,-1.7359 -18.2719,0.2713 -25.375,-0.705 -11.3762,-1.5638 -14.47,-4.0315 -23.541,-0.6426 -30.8001,-19.6286 -47.2809,-27.2754 -91.8481,-27.1611 z"
         sodipodi:nodetypes="csccccccscsscc" />
      <path
         id="path37599"
         style="fill:none;fill-opacity:1;stroke:#ffffff;stroke-width:10.4622;stroke-linecap:square;stroke-linejoin:miter;stroke-miterlimit:4;stroke-dasharray:none;stroke-opacity:1;paint-order:fill markers stroke"
         d="m 610.9002,374.88172 c -18.6881,0.025 -36.071,5.4305 -46.1367,14.3477 -7.2745,-1.1173 -15.8281,-0.4859 -24.2109,1.7871 -13.3756,3.6603 -24.5486,11.0054 -29.0801,19.1172 -4.8207,-1.1375 -10.2056,-1.7333 -15.6758,-1.7344 -13.4879,0 -25.6318,3.5951 -30.7265,9.0899 -8.8438,0.2942 -15.7519,4.38 -15.7715,9.3281 1e-4,5.1721 7.5071,9.3649 16.7676,9.3652 3.354,-0.01 6.6271,-0.5759 9.3964,-1.6328 5.8176,1.986 12.9707,3.0646 20.334,3.0664 10.8786,-0.011 21.0555,-2.3651 27.2403,-6.3027 7.9943,2.1615 18.3053,1.8202 28.4414,-0.9414 5.3813,-1.4815 10.5096,-3.5917 15.0136,-6.1778 10.3041,8.075 26.8161,12.8651 44.4082,12.8828 27.9935,0.9001 27.8698,-13.6583 29.613,-31.6453 2.7222,-28.0866 13.7635,-41.2498 -9.4288,-31.301 -5.2145,2.2368 -10.5806,-1.7305 -20.1842,0.751 z"
         sodipodi:nodetypes="ccccccccccccccssc" />
    </g>
  </g>
</svg>
